<svg width="14" height="16" viewBox="0 0 14 16" fill="none" xmlns="http://www.w3.org/2000/svg">
<path d="M9.3439 14.2498C9.3439 13.3187 9.3439 12.4028 9.3439 11.4869C9.3439 11.1211 9.29553 10.7644 9.16555 10.4228C9.06882 10.1659 8.93279 9.93917 8.71212 9.73362C9.02952 9.67618 9.32576 9.63084 9.622 9.57038C10.0694 9.47969 10.4986 9.33761 10.9067 9.13206C11.6896 8.73909 12.2761 8.15266 12.5965 7.33346C13.0439 6.19384 13.1557 5.02399 12.8141 3.83299C12.6872 3.3856 12.4574 2.98357 12.1552 2.62989C12.0856 2.5513 12.0766 2.48782 12.1098 2.38504C12.3637 1.61119 12.2519 0.858494 11.9738 0.11487C11.9405 0.0241844 11.8771 0.0181335 11.8015 0.0151106C11.4569 0.00906489 11.1334 0.0997548 10.816 0.217646C10.3475 0.389949 9.90917 0.625736 9.48899 0.891748C9.39529 0.952205 9.31669 0.970343 9.20182 0.940115C7.90804 0.601554 6.59612 0.595506 5.29326 0.852449C4.83379 0.943135 4.46198 0.921974 4.05994 0.652939C3.57628 0.329493 3.02612 0.114868 2.43968 0.0272046C2.34295 0.0120903 2.2704 0.00302286 2.21297 0L2.03462 0.0634775C1.98928 0.117889 1.95905 0.208575 1.91068 0.356695C1.69606 1.04288 1.68397 1.73512 1.87138 2.42736C1.89859 2.53013 1.8865 2.59664 1.81697 2.67523C1.24565 3.34933 0.979641 4.13527 0.967549 5.0119C0.958481 5.71018 1.02498 6.3994 1.24565 7.06442C1.68699 8.39448 2.64524 9.15625 3.96018 9.52201C4.37431 9.63688 4.79449 9.71245 5.25699 9.76384C5.13003 9.90289 5.01818 10.0238 4.93657 10.1659C4.80961 10.3866 4.73101 10.6254 4.70078 10.8763C4.68869 10.979 4.64637 11.0244 4.55871 11.0606C3.47652 11.502 2.5213 11.1967 1.89254 10.2142C1.5963 9.74873 1.19124 9.43132 0.64108 9.31948C0.468777 9.28622 0.299497 9.28018 0.13324 9.34064C-0.0118576 9.39505 -0.0390633 9.48574 0.0546454 9.60968C0.121148 9.70036 0.205788 9.77291 0.30252 9.83034C0.846635 10.1629 1.18822 10.6586 1.42702 11.2269C1.79581 12.1005 2.47293 12.5086 3.38282 12.5811C3.79392 12.6144 4.20503 12.5721 4.61614 12.4784C4.61614 13.0467 4.60707 13.6754 4.60707 14.2347C4.60707 14.2347 4.63428 16 6.95886 16C9.28344 16 9.34692 14.2347 9.34692 14.2347L9.3439 14.2498Z" fill="white"/>
</svg>
