<svg width="48" height="48" viewBox="0 0 48 48" fill="none" xmlns="http://www.w3.org/2000/svg">
<path d="M36.5195 29.957C36.5195 30.8685 36.2917 31.8581 35.8359 32.9258C35.3932 33.9805 34.6901 35.0221 33.7266 36.0508C32.763 37.0664 31.5326 37.8932 30.0352 38.5312C28.5378 39.1693 26.793 39.4883 24.8008 39.4883C23.2904 39.4883 21.9167 39.3451 20.6797 39.0586C19.4427 38.7721 18.3164 38.3294 17.3008 37.7305C16.2982 37.1185 15.3737 36.3177 14.5273 35.3281C13.7721 34.4297 13.1276 33.4271 12.5938 32.3203C12.0599 31.2005 11.6562 30.0091 11.3828 28.7461C11.1224 27.4831 10.9922 26.1419 10.9922 24.7227C10.9922 22.418 11.3242 20.3542 11.9883 18.5312C12.6654 16.7083 13.6289 15.1523 14.8789 13.8633C16.1289 12.5612 17.5938 11.5716 19.2734 10.8945C20.9531 10.2174 22.7435 9.87891 24.6445 9.87891C26.9622 9.87891 29.026 10.3411 30.8359 11.2656C32.6458 12.1901 34.0326 13.3359 34.9961 14.7031C35.9596 16.0573 36.4414 17.3398 36.4414 18.5508C36.4414 19.2148 36.207 19.8008 35.7383 20.3086C35.2695 20.8164 34.7031 21.0703 34.0391 21.0703C33.2969 21.0703 32.737 20.8945 32.3594 20.543C31.9948 20.1914 31.5846 19.5859 31.1289 18.7266C30.3737 17.3073 29.4818 16.2461 28.4531 15.543C27.4375 14.8398 26.181 14.4883 24.6836 14.4883C22.3008 14.4883 20.3997 15.3932 18.9805 17.2031C17.5742 19.013 16.8711 21.5846 16.8711 24.918C16.8711 27.1445 17.1836 29 17.8086 30.4844C18.4336 31.9557 19.319 33.056 20.4648 33.7852C21.6107 34.5143 22.9518 34.8789 24.4883 34.8789C26.1549 34.8789 27.5612 34.4688 28.707 33.6484C29.8659 32.8151 30.7383 31.5977 31.3242 29.9961C31.5716 29.2409 31.8776 28.6289 32.2422 28.1602C32.6068 27.6784 33.1927 27.4375 34 27.4375C34.6901 27.4375 35.2826 27.6784 35.7773 28.1602C36.2721 28.6419 36.5195 29.2409 36.5195 29.957Z" fill="#153249"/>
</svg>
