<svg width="16" height="16" viewBox="0 0 16 16" fill="none" xmlns="http://www.w3.org/2000/svg">
<path d="M0 8.16135V16.0001H3.7341V7.53038V5.3335H0V8.16135Z" fill="white"/>
<path d="M1.86939 0C0.838022 0 0.00463867 0.833621 0.00463867 1.86528C0.00463867 2.89694 0.842626 3.73056 1.86939 3.73056C2.89615 3.73056 3.73414 2.89694 3.73414 1.86528C3.73414 0.833621 2.90076 0 1.86939 0Z" fill="white"/>
<path d="M15.9171 8.6081C15.6638 6.59544 14.743 5.3335 12.0218 5.3335C10.4103 5.3335 9.32829 5.93223 8.88628 6.77506H8.84023V5.3335H5.86584V16.0001H8.97376V10.7129C8.97376 9.31737 9.2362 7.96792 10.9628 7.96792C12.6894 7.96792 12.7999 9.56147 12.7999 10.8004V15.9955H15.9999V10.1326C15.9999 9.58449 15.9769 9.07327 15.9171 8.60349V8.6081Z" fill="white"/>
</svg>
